<svg id="Lager_1" data-name="Lager 1" xmlns="http://www.w3.org/2000/svg" viewBox="0 0 263.51 255.61"><defs><style>.cls-1{fill:#1d1d1b;stroke:#1d1d1b;stroke-miterlimit:10;}</style></defs><path class="cls-1" d="M167.35,34.48a95.6,95.6,0,0,0-134.48,0,93.88,93.88,0,0,0,0,133.47,95.64,95.64,0,0,0,124.79,8.43l14.08,14-4.92,4.88a4.46,4.46,0,0,0,0,6.32l56,55.55a15.11,15.11,0,0,0,21.23,0l19.13-19a14.8,14.8,0,0,0,0-21.05v0l-56-55.54a4.5,4.5,0,0,0-6.34,0l0,0-4.92,4.88-15.17-15.07A93.88,93.88,0,0,0,167.35,34.48ZM49.86,151.1a70.16,70.16,0,0,1,0-99.75,71.46,71.46,0,0,1,100.51,0,70.15,70.15,0,0,1,0,99.74,71.46,71.46,0,0,1-100.51,0Z" transform="translate(-4.5 -6.32)"/></svg>