<svg id="Lager_1" data-name="Lager 1" xmlns="http://www.w3.org/2000/svg" viewBox="0 0 56.69 55.41"><defs><style>.cls-1{fill:#1d1d1b;stroke:#1d1d1b;stroke-miterlimit:10;}</style></defs><path class="cls-1" d="M43.34,13.7A20.17,20.17,0,1,0,41.28,44l3,3-1,1a1,1,0,0,0,0,1.35L55.1,61.27a3.16,3.16,0,0,0,4.5,0l4.06-4.05a3.2,3.2,0,0,0,0-4.51L51.79,40.84a1,1,0,0,0-1.36,0l-1,1-3.22-3.22A20.19,20.19,0,0,0,43.34,13.7ZM18.42,38.63a15.08,15.08,0,1,1,21.32,0A15.07,15.07,0,0,1,18.42,38.63Z" transform="translate(-8.4 -7.29)"/></svg>