<svg id="Lager_1" data-name="Lager 1" xmlns="http://www.w3.org/2000/svg" viewBox="0 0 268.04 261.92"><defs><style>.cls-1{fill:#1d1d1b;stroke:#1d1d1b;stroke-miterlimit:10;}</style></defs><path class="cls-1" d="M176.69,39.6A96.73,96.73,0,1,0,166.79,185l14.32,14.32-5,5a4.59,4.59,0,0,0,0,6.48l56.93,56.93a15.28,15.28,0,0,0,21.6,0l19.45-19.46a15.26,15.26,0,0,0,0-21.6l-56.93-56.92a4.56,4.56,0,0,0-6.48,0l-5,5-15.43-15.44A96.77,96.77,0,0,0,176.69,39.6ZM57.17,159.12a72.29,72.29,0,1,1,102.24,0A72.29,72.29,0,0,1,57.17,159.12Z" transform="translate(-11.06 -10.77)"/></svg>