<svg id="Lager_1" data-name="Lager 1" xmlns="http://www.w3.org/2000/svg" viewBox="0 0 71 71"><defs><style>.cls-1{fill:#212121;stroke:#212121;}.cls-1,.cls-2{stroke-miterlimit:10;}.cls-2{fill:#fff;stroke:#fff;}</style></defs><rect class="cls-1" x="0.5" y="0.5" width="70" height="70"/><path class="cls-2" d="M41.13,15.18A18.77,18.77,0,1,0,39.21,43.4L42,46.18l-1,1a.89.89,0,0,0,0,1.26l11,11a3,3,0,0,0,2.1.87,2.91,2.91,0,0,0,2.09-.87L60,55.67a3,3,0,0,0,0-4.19l-11-11a.88.88,0,0,0-.63-.26.92.92,0,0,0-.63.26l-1,1-3-3A18.78,18.78,0,0,0,41.13,15.18ZM17.94,38.37a14,14,0,1,1,19.84,0A14,14,0,0,1,17.94,38.37Z" transform="translate(0.5 0.5)"/></svg>