<svg id="Lager_1" data-name="Lager 1" xmlns="http://www.w3.org/2000/svg" viewBox="0 0 71 71"><defs><style>.cls-1,.cls-2{fill:#222;}.cls-2{fill-rule:evenodd;}.cls-3{fill:#fff;}.cls-4{fill:#ccc;}.cls-5{fill:#b3b3b3;}</style></defs><rect class="cls-1" width="71" height="71"/><path class="cls-2" d="M54.81,67.6H14.76A12.23,12.23,0,0,1,2.43,55.47V16.07A12.23,12.23,0,0,1,14.76,3.94H54.81A12.23,12.23,0,0,1,67.13,16.07v39.4A12.23,12.23,0,0,1,54.81,67.6Z"/><path class="cls-3" d="M55.78,19.44,49.45,51.35a2.33,2.33,0,0,1-3.31,1.15L31.53,41.3l-5.31-2.57-8.94-3s-1.37-.48-1.5-1.54,1.55-1.64,1.55-1.64L52.86,18.6S55.78,17.32,55.78,19.44Z"/><path class="cls-4" d="M30.41,51s-.43,0-1-1.72-3.23-10.54-3.23-10.54L47.68,25.1s1.24-.75,1.2,0c0,0,.22.14-.44.76S31.58,41,31.58,41"/><path class="cls-5" d="M37.13,45.59l-5.77,5.27a1,1,0,0,1-.95.13l1.11-9.78"/></svg>