<svg id="Lager_1" data-name="Lager 1" xmlns="http://www.w3.org/2000/svg" viewBox="0 0 69.87 69.87"><defs><style>.cls-1{fill:#fff;}.cls-2{fill:#181919;}</style></defs><rect class="cls-1" width="69.87" height="69.87"/><path class="cls-2" d="M47.24,42.75A12.86,12.86,0,0,1,44.41,47l0,0a2.15,2.15,0,0,1-3,0l-1-1a2.15,2.15,0,0,1,0-3l.17-.16a7.21,7.21,0,0,0,0-9.89l-.17-.16a2.14,2.14,0,0,1,0-3l1-1a2.14,2.14,0,0,1,3,0l.06.06a12.85,12.85,0,0,1,2.83,13.92Zm11-4.84a22.83,22.83,0,0,0-6.71-16.18l-.06-.06a2.15,2.15,0,0,0-3,0l-1,1a2.16,2.16,0,0,0,0,3.05l0,0a17.25,17.25,0,0,1,0,24.37h0a2.14,2.14,0,0,0,0,3l1,1a2.15,2.15,0,0,0,3,0l0,0a22.83,22.83,0,0,0,6.71-16.19ZM65.9,25.5a32.93,32.93,0,0,0-7.24-10.91l-.06-.05a2.15,2.15,0,0,0-3,0l-1,1a2.15,2.15,0,0,0,0,3l0,0a27.35,27.35,0,0,1,0,38.63l0,0a2.15,2.15,0,0,0,0,3l1,1a2.15,2.15,0,0,0,3,0l0,0A33,33,0,0,0,65.9,25.5Zm-34.28-11L19,26.37a2,2,0,0,1-1.39.56H3.72a2,2,0,0,0-2,2V46.85a2,2,0,0,0,2,2H17.56a2.07,2.07,0,0,1,1.39.55l12.67,11.9A2,2,0,0,0,35,59.85V16A2,2,0,0,0,31.62,14.48Z" transform="translate(-0.13)"/></svg>