<svg id="Lager_1" data-name="Lager 1" xmlns="http://www.w3.org/2000/svg" viewBox="0 0 69.87 69.87"><defs><style>.cls-1{fill:#c9c8c8;}.cls-2{fill:#181919;}</style></defs><rect class="cls-1" width="69.87" height="69.87"/><path class="cls-2" d="M35.44,15.37V60.44A2.06,2.06,0,0,1,32,62L19.15,49.74a2,2,0,0,0-1.4-.56h-14a2.08,2.08,0,0,1-2.06-2.09V28.72a2.07,2.07,0,0,1,2.06-2.09h14a2,2,0,0,0,1.4-.57L32,13.84A2.06,2.06,0,0,1,35.44,15.37ZM60.15,43.13,55,37.89l5.14-5.21a1,1,0,0,0,0-1.46l-3-3a1,1,0,0,0-1.44,0l-5.14,5.22-5.12-5.2a1,1,0,0,0-1.44,0l-3,3a1,1,0,0,0,0,1.46l5.12,5.19-5.14,5.22a1,1,0,0,0,0,1.46l2.95,3a1,1,0,0,0,1.44,0l5.14-5.22,5.16,5.24a1,1,0,0,0,1.44,0l3-3A1,1,0,0,0,60.15,43.13Z" transform="translate(-0.13)"/></svg>