<?xml version="1.0" encoding="utf-8"?>
<!-- Generator: Adobe Illustrator 26.0.1, SVG Export Plug-In . SVG Version: 6.00 Build 0)  -->
<svg version="1.1" id="Lager_1" xmlns="http://www.w3.org/2000/svg" xmlns:xlink="http://www.w3.org/1999/xlink" x="0px" y="0px"
	 viewBox="0 0 70 70" style="enable-background:new 0 0 70 70;" xml:space="preserve">
<style type="text/css">
	.st0{fill:#181919;}
</style>
<path class="st0" d="M35.48,9.61V32.4v22.79c0,1.85-2.21,2.8-3.56,1.54L18.77,44.37c-0.39-0.37-0.91-0.57-1.44-0.57H2.95
	c-1.17,0-2.11-0.94-2.11-2.11V32.4v-9.29c0-1.17,0.94-2.11,2.11-2.11h14.37c0.54,0,1.05-0.2,1.44-0.57L31.92,8.07
	C33.27,6.8,35.48,7.76,35.48,9.61z M60.84,37.69l-5.3-5.3l5.28-5.28c0.41-0.41,0.41-1.07,0-1.48l-3.03-3.03
	c-0.41-0.41-1.07-0.41-1.48,0l-5.28,5.28l-5.26-5.26c-0.41-0.41-1.07-0.41-1.48,0l-3.03,3.03c-0.41,0.41-0.41,1.07,0,1.48l5.26,5.26
	l-5.28,5.28c-0.41,0.41-0.41,1.07,0,1.48l3.03,3.03c0.41,0.41,1.07,0.41,1.48,0l5.28-5.28l5.3,5.3c0.41,0.41,1.07,0.41,1.48,0
	l3.03-3.03C61.24,38.75,61.24,38.09,60.84,37.69z"/>
</svg>
