<?xml version="1.0" encoding="utf-8"?>
<!-- Generator: Adobe Illustrator 26.0.1, SVG Export Plug-In . SVG Version: 6.00 Build 0)  -->
<svg version="1.1" id="Lager_1" xmlns="http://www.w3.org/2000/svg" xmlns:xlink="http://www.w3.org/1999/xlink" x="0px" y="0px"
	 viewBox="0 0 70 70" style="enable-background:new 0 0 70 70;" xml:space="preserve">
<style type="text/css">
	.st0{fill:#181919;}
</style>
<path class="st0" d="M47.24,36.66c-0.65,1.6-1.6,3.03-2.82,4.25c-0.01,0.01-0.02,0.02-0.04,0.04c-0.84,0.83-2.19,0.82-3.03-0.01
	l-0.97-0.97c-0.84-0.84-0.84-2.2,0-3.03c0.06-0.06,0.11-0.11,0.17-0.17c2.62-2.76,2.61-7.13-0.02-9.88
	c-0.05-0.06-0.11-0.11-0.17-0.17c-0.85-0.83-0.85-2.2-0.01-3.04l0.97-0.97c0.83-0.83,2.19-0.84,3.03-0.01
	c0.02,0.02,0.04,0.04,0.06,0.06c1.23,1.23,2.17,2.66,2.82,4.25c0.62,1.54,0.94,3.16,0.94,4.83C48.18,33.49,47.86,35.12,47.24,36.66z
	 M58.23,31.83c0-2.97-0.56-5.87-1.68-8.61c-1.15-2.84-2.84-5.39-5.03-7.57c-0.02-0.02-0.04-0.04-0.06-0.06
	c-0.84-0.83-2.19-0.83-3.03,0.01l-0.97,0.97c-0.84,0.84-0.83,2.21,0.01,3.05c0.01,0.01,0.03,0.03,0.04,0.04
	c6.72,6.72,6.72,17.64,0,24.36c-0.01,0.01-0.01,0.01-0.02,0.02c-0.84,0.84-0.85,2.2-0.01,3.05l0.97,0.97
	c0.84,0.84,2.19,0.84,3.03,0.01c0.01-0.01,0.02-0.02,0.03-0.03c2.18-2.18,3.88-4.73,5.03-7.57C57.66,37.7,58.23,34.8,58.23,31.83z
	 M65.9,19.42c-1.66-4.09-4.1-7.77-7.25-10.91c-0.02-0.02-0.04-0.04-0.06-0.06c-0.84-0.83-2.19-0.83-3.03,0.01L54.6,9.43
	c-0.84,0.84-0.84,2.2,0.01,3.04c0.01,0.01,0.03,0.03,0.04,0.04c10.65,10.65,10.65,27.98,0,38.63c-0.01,0.01-0.01,0.01-0.02,0.02
	c-0.84,0.84-0.85,2.2-0.01,3.04l0.97,0.97c0.84,0.84,2.19,0.84,3.03,0.01c0.01-0.01,0.02-0.02,0.03-0.03
	c3.15-3.15,5.59-6.82,7.25-10.91c1.6-3.95,2.42-8.13,2.42-12.41C68.32,27.55,67.5,23.37,65.9,19.42z M31.62,8.39l-12.67,11.9
	c-0.38,0.35-0.87,0.55-1.39,0.55H3.72c-1.12,0-2.03,0.91-2.03,2.03v8.95v8.95c0,1.12,0.91,2.03,2.03,2.03h13.84
	c0.52,0,1.01,0.2,1.39,0.55l12.67,11.9c1.3,1.22,3.42,0.3,3.42-1.48V31.82V9.87C35.04,8.09,32.91,7.17,31.62,8.39z"/>
</svg>
